<svg height="58" viewBox="0 0 193 58" width="193" xmlns="http://www.w3.org/2000/svg"><path d="m77.531 33.209c0 .753.276 1.41.826 1.975.55.566 1.303.847 2.259.847.896 0 1.795-.217 2.692-.651.898-.435 1.708-1.028 2.432-1.781v-3.779h-4.734c-1.072 0-1.919.326-2.54.977-.624.652-.935 1.456-.935 2.412zm-1.737-9.6-1.347-3.997c.753-.492 1.918-.925 3.496-1.302 1.579-.376 2.86-.565 3.845-.565 1.621 0 3.106.333 4.452.999 1.347.667 2.411 1.572 3.192 2.715.782 1.144 1.173 2.425 1.173 3.843v14.074h-3.257l-.738-2.128c-.812.781-1.737 1.419-2.78 1.912-1.044.49-2.086.737-3.128.737-2.431 0-4.278-.607-5.538-1.824-1.26-1.216-1.889-2.837-1.889-4.864 0-2.114.716-3.751 2.15-4.909s3.323-1.737 5.668-1.737h4.603c-.057-2.925-1.331-4.387-3.821-4.387-1.911 0-3.938.477-6.081 1.433zm18.502 14.29 1.478-3.388c1.998.956 3.864 1.434 5.602 1.434 1.101 0 2.042-.203 2.824-.608.781-.406 1.173-.956 1.173-1.651 0-1.274-1.39-2.36-4.17-3.257-4.634-1.506-6.95-3.65-6.95-6.429 0-1.939.724-3.468 2.172-4.583 1.447-1.113 3.416-1.672 5.907-1.672.984 0 2.165.189 3.54.565 1.376.377 2.525.883 3.453 1.521l-1.52 3.3c-1.013-.463-1.948-.817-2.802-1.065-.855-.245-1.775-.369-2.757-.369-.899 0-1.652.218-2.259.653-.609.433-.912.97-.912 1.606.028.494.376.942 1.042 1.346.665.407 1.593.812 2.78 1.217 4.777 1.709 7.167 4.026 7.167 6.95 0 2.056-.747 3.648-2.237 4.779-1.492 1.128-3.643 1.693-6.451 1.693-1.042 0-2.266-.182-3.669-.544-1.406-.36-2.542-.86-3.411-1.498zm32.729-4.083c1-1.273 1.498-2.91 1.498-4.908 0-2.085-.492-3.771-1.476-5.06s-2.361-1.933-4.126-1.933c-.754 0-1.456.115-2.107.347s-1.297.58-1.934 1.042v11.12c1.188.87 2.535 1.304 4.041 1.304 1.738 0 3.105-.638 4.104-1.912zm1.586-14.702c1.592.912 2.816 2.207 3.671 3.888.852 1.678 1.279 3.647 1.279 5.906 0 2.173-.432 4.091-1.303 5.755-.868 1.665-2.105 2.962-3.712 3.887-1.608.927-3.483 1.391-5.625 1.391-1.276 0-2.621-.377-4.041-1.13v9.6l-4.864.477v-30.578h2.564l1.042 1.39c.839-.637 1.737-1.122 2.692-1.455.955-.332 1.853-.5 2.693-.5 2.142 0 4.01.456 5.604 1.369zm12.551 7.752h9.816c-.261-1.621-.797-2.851-1.607-3.692-.811-.839-1.897-1.259-3.257-1.259-1.389 0-2.512.435-3.366 1.303-.855.868-1.383 2.084-1.586 3.648zm14.509 3.259h-14.595c.434 3.764 2.678 5.645 6.732 5.645 1.13 0 2.136-.151 3.019-.456.884-.304 1.947-.773 3.192-1.411l1.477 3.562c-2.345 1.622-4.937 2.432-7.775 2.432-3.822 0-6.739-.99-8.752-2.975-2.012-1.983-3.018-4.684-3.018-8.101 0-2.2.412-4.133 1.237-5.798.826-1.666 2.012-2.96 3.562-3.888 1.548-.927 3.381-1.39 5.495-1.39 3.097 0 5.442 1.028 7.036 3.084 1.593 2.056 2.39 4.677 2.39 7.862zm34.442-11.064 1.477 4.173h-5.299v9.019c0 1.128.253 2.035.76 2.714.506.681 1.267 1.022 2.281 1.022.666 0 1.39-.175 2.172-.522l1.345 3.605c-.433.29-1.035.543-1.802.76s-1.47.326-2.107.326c-2.345 0-4.184-.608-5.516-1.824-1.333-1.217-1.998-2.968-1.998-5.255v-9.845h-2.91v-4.173h2.91v-5.746l4.865-.956v6.702zm-18.329 16.319c-.868.231-1.839.348-2.91.348-1.766 0-3.178-.638-4.234-1.912-1.057-1.273-1.587-2.938-1.587-4.995.03-1.998.587-3.649 1.673-4.952s2.498-1.954 4.235-1.954c1.013 0 1.948.115 2.802.347.835.227 1.808.583 2.909 1.06v-4.264c-.612-.276-1.295-.52-2.062-.727-1.448-.391-2.665-.586-3.649-.586-2.201 0-4.125.463-5.777 1.39-1.649.928-2.918 2.222-3.801 3.888-.883 1.665-1.324 3.597-1.324 5.798 0 2.23.441 4.178 1.324 5.842.883 1.665 2.136 2.962 3.757 3.887 1.622.927 3.532 1.391 5.734 1.391 1.013 0 2.244-.189 3.692-.565 1.448-.375 2.62-.883 3.519-1.521l-1.433-3.561c-1.044.494-1.998.854-2.868 1.086zm-145.493-12.213c-3.1 0-5.623 2.522-5.623 5.623 0 3.1 2.523 5.623 5.623 5.623 3.101 0 5.623-2.523 5.623-5.623 0-3.101-2.522-5.623-5.623-5.623zm16.018 16.244h-5.398v-7.716c-1.28 4.67-5.55 8.116-10.62 8.116-6.077 0-11.021-4.944-11.021-11.021s4.944-11.021 11.021-11.021c5.07 0 9.34 3.446 10.62 8.115v-7.715h5.398zm-13.519-39.411c-23.032 0-28.79 5.758-28.79 28.79 0 23.031 5.758 28.79 28.79 28.79 23.031 0 28.789-5.759 28.789-28.79 0-23.032-5.758-28.79-28.789-28.79z"/></svg>